<svg aria-roledescription="class" role="graphics-document document" viewBox="0 0 697.775390625 901" style="max-width: 697.775390625px;" class="classDiagram" xmlns="http://www.w3.org/2000/svg" width="100%" id="mermaidSvgId"><style>#mermaidSvgId{font-family:trebuchet ms,verdana,arial;font-size:16px;fill:#006060;}#mermaidSvgId .error-icon{fill:#E0D9D9;}#mermaidSvgId .error-text{fill:#800000;stroke:#800000;}#mermaidSvgId .edge-thickness-normal{stroke-width:1px;}#mermaidSvgId .edge-thickness-thick{stroke-width:3.5px;}#mermaidSvgId .edge-pattern-solid{stroke-dasharray:0;}#mermaidSvgId .edge-thickness-invisible{stroke-width:0;fill:none;}#mermaidSvgId .edge-pattern-dashed{stroke-dasharray:3;}#mermaidSvgId .edge-pattern-dotted{stroke-dasharray:2;}#mermaidSvgId .marker{fill:#007070;stroke:#007070;}#mermaidSvgId .marker.cross{stroke:#007070;}#mermaidSvgId svg{font-family:trebuchet ms,verdana,arial;font-size:16px;}#mermaidSvgId p{margin:0;}#mermaidSvgId g.classGroup text{fill:#007070;stroke:none;font-family:trebuchet ms,verdana,arial;font-size:10px;}#mermaidSvgId g.classGroup text .title{font-weight:bolder;}#mermaidSvgId .nodeLabel,#mermaidSvgId .edgeLabel{color:#006060;}#mermaidSvgId .edgeLabel .label rect{fill:#E0FBFB;}#mermaidSvgId .label text{fill:#006060;}#mermaidSvgId .labelBkg{background:#E0FBFB;}#mermaidSvgId .edgeLabel .label span{background:#E0FBFB;}#mermaidSvgId .classTitle{font-weight:bolder;}#mermaidSvgId .node rect,#mermaidSvgId .node circle,#mermaidSvgId .node ellipse,#mermaidSvgId .node polygon,#mermaidSvgId .node path{fill:#E0FBFB;stroke:#007070;stroke-width:1px;}#mermaidSvgId .divider{stroke:#007070;stroke-width:1;}#mermaidSvgId g.clickable{cursor:pointer;}#mermaidSvgId g.classGroup rect{fill:#E0FBFB;stroke:#007070;}#mermaidSvgId g.classGroup line{stroke:#007070;stroke-width:1;}#mermaidSvgId .classLabel .box{stroke:none;stroke-width:0;fill:#E0FBFB;opacity:0.5;}#mermaidSvgId .classLabel .label{fill:#007070;font-size:10px;}#mermaidSvgId .relation{stroke:#007070;stroke-width:1;fill:none;}#mermaidSvgId .dashed-line{stroke-dasharray:3;}#mermaidSvgId .dotted-line{stroke-dasharray:1 2;}#mermaidSvgId #compositionStart,#mermaidSvgId .composition{fill:#007070!important;stroke:#007070!important;stroke-width:1;}#mermaidSvgId #compositionEnd,#mermaidSvgId .composition{fill:#007070!important;stroke:#007070!important;stroke-width:1;}#mermaidSvgId #dependencyStart,#mermaidSvgId .dependency{fill:#007070!important;stroke:#007070!important;stroke-width:1;}#mermaidSvgId #dependencyStart,#mermaidSvgId .dependency{fill:#007070!important;stroke:#007070!important;stroke-width:1;}#mermaidSvgId #extensionStart,#mermaidSvgId .extension{fill:transparent!important;stroke:#007070!important;stroke-width:1;}#mermaidSvgId #extensionEnd,#mermaidSvgId .extension{fill:transparent!important;stroke:#007070!important;stroke-width:1;}#mermaidSvgId #aggregationStart,#mermaidSvgId .aggregation{fill:transparent!important;stroke:#007070!important;stroke-width:1;}#mermaidSvgId #aggregationEnd,#mermaidSvgId .aggregation{fill:transparent!important;stroke:#007070!important;stroke-width:1;}#mermaidSvgId #lollipopStart,#mermaidSvgId .lollipop{fill:#E0FBFB!important;stroke:#007070!important;stroke-width:1;}#mermaidSvgId #lollipopEnd,#mermaidSvgId .lollipop{fill:#E0FBFB!important;stroke:#007070!important;stroke-width:1;}#mermaidSvgId .edgeTerminals{font-size:11px;line-height:initial;}#mermaidSvgId .classTitleText{text-anchor:middle;font-size:18px;fill:#006060;}#mermaidSvgId :root{--mermaid-font-family:"trebuchet ms",verdana,arial,sans-serif;}</style><g><defs><marker orient="auto" markerHeight="240" markerWidth="190" refY="7" refX="18" class="marker aggregation class" id="mermaidSvgId_class-aggregationStart"><path d="M 18,7 L9,13 L1,7 L9,1 Z"></path></marker></defs><defs><marker orient="auto" markerHeight="28" markerWidth="20" refY="7" refX="1" class="marker aggregation class" id="mermaidSvgId_class-aggregationEnd"><path d="M 18,7 L9,13 L1,7 L9,1 Z"></path></marker></defs><defs><marker orient="auto" markerHeight="240" markerWidth="190" refY="7" refX="18" class="marker extension class" id="mermaidSvgId_class-extensionStart"><path d="M 1,7 L18,13 V 1 Z"></path></marker></defs><defs><marker orient="auto" markerHeight="28" markerWidth="20" refY="7" refX="1" class="marker extension class" id="mermaidSvgId_class-extensionEnd"><path d="M 1,1 V 13 L18,7 Z"></path></marker></defs><defs><marker orient="auto" markerHeight="240" markerWidth="190" refY="7" refX="18" class="marker composition class" id="mermaidSvgId_class-compositionStart"><path d="M 18,7 L9,13 L1,7 L9,1 Z"></path></marker></defs><defs><marker orient="auto" markerHeight="28" markerWidth="20" refY="7" refX="1" class="marker composition class" id="mermaidSvgId_class-compositionEnd"><path d="M 18,7 L9,13 L1,7 L9,1 Z"></path></marker></defs><defs><marker orient="auto" markerHeight="240" markerWidth="190" refY="7" refX="6" class="marker dependency class" id="mermaidSvgId_class-dependencyStart"><path d="M 5,7 L9,13 L1,7 L9,1 Z"></path></marker></defs><defs><marker orient="auto" markerHeight="28" markerWidth="20" refY="7" refX="13" class="marker dependency class" id="mermaidSvgId_class-dependencyEnd"><path d="M 18,7 L9,13 L14,7 L9,1 Z"></path></marker></defs><defs><marker orient="auto" markerHeight="240" markerWidth="190" refY="7" refX="13" class="marker lollipop class" id="mermaidSvgId_class-lollipopStart"><circle r="6" cy="7" cx="7" fill="transparent" stroke="black"></circle></marker></defs><defs><marker orient="auto" markerHeight="240" markerWidth="190" refY="7" refX="1" class="marker lollipop class" id="mermaidSvgId_class-lollipopEnd"><circle r="6" cy="7" cx="7" fill="transparent" stroke="black"></circle></marker></defs><g class="root"><g class="clusters"></g><g class="edgePaths"><path marker-end="url(#mermaidSvgId_class-dependencyEnd)" style=";" class="edge-thickness-normal edge-pattern-solid relation" id="id_User_Assessment_1" d="M98.82,247L94.859,253.083C90.897,259.167,82.974,271.333,80.073,282.521C77.173,293.709,79.295,303.917,80.356,309.021L81.417,314.126"></path><path marker-end="url(#mermaidSvgId_class-dependencyEnd)" style=";" class="edge-thickness-normal edge-pattern-solid relation" id="id_User_Assessment_2" d="M152.005,247L150.751,253.083C149.497,259.167,146.989,271.333,144.674,282.521C142.358,293.709,140.236,303.917,139.175,309.021L138.114,314.126"></path><path marker-end="url(#mermaidSvgId_class-dependencyEnd)" style=";" class="edge-thickness-normal edge-pattern-solid relation" id="id_Assessment_Question_3" d="M109.766,581L109.766,587.083C109.766,593.167,109.766,605.333,111.72,618.371C113.674,631.408,117.582,645.316,119.535,652.27L121.489,659.224"></path><path marker-end="url(#mermaidSvgId_class-dependencyEnd)" style=";" class="edge-thickness-normal edge-pattern-solid relation" id="id_Assessment_Submission_4" d="M211.531,493.165L260.958,513.888C310.385,534.61,409.24,576.055,460.706,601.931C512.173,627.807,516.252,638.114,518.292,643.268L520.331,648.421"></path><path marker-end="url(#mermaidSvgId_class-dependencyEnd)" style=";" class="edge-thickness-normal edge-pattern-solid relation" id="id_User_Submission_5" d="M276.601,161.837L335.63,182.114C394.66,202.391,512.72,242.946,571.75,291.056C630.779,339.167,630.779,394.833,630.779,450.5C630.779,506.167,630.779,561.833,628.767,594.819C626.754,627.804,622.728,638.108,620.716,643.259L618.703,648.411"></path><path marker-end="url(#mermaidSvgId_class-dependencyEnd)" style=";" class="edge-thickness-normal edge-pattern-solid relation" id="id_DocumentUpload_Question_6" d="M392.039,548L392.039,559.583C392.039,571.167,392.039,594.333,371.908,619.087C351.777,643.842,311.515,670.183,291.384,683.354L271.253,696.525"></path></g><g class="edgeLabels"><g transform="translate(75.05078125, 283.5)" class="edgeLabel"><g transform="translate(-28.4140625, -11.5)" class="label"><g><rect height="23" width="56.828125" y="-1" x="-2" style=";display: inline-block" class="background"></rect><text style=";display: inline-block" y="-10.1"><tspan dy="1.1em" y="-0.1em" x="0" class="text-outer-tspan"><tspan font-weight="normal" class="text-inner-tspan" font-style="normal">creates</tspan></tspan></text></g></g></g><g transform="translate(144.48046875, 283.5)" class="edgeLabel"><g transform="translate(-21.015625, -11.5)" class="label"><g><rect height="23" width="42.03125" y="-1" x="-2" style=";display: inline-block" class="background"></rect><text style=";display: inline-block" y="-10.1"><tspan dy="1.1em" y="-0.1em" x="0" class="text-outer-tspan"><tspan font-weight="normal" class="text-inner-tspan" font-style="normal">takes</tspan></tspan></text></g></g></g><g transform="translate(109.765625, 617.5)" class="edgeLabel"><g transform="translate(-13.8125, -11.5)" class="label"><g><rect height="23" width="27.625" y="-1" x="-2" style=";display: inline-block" class="background"></rect><text style=";display: inline-block" y="-10.1"><tspan dy="1.1em" y="-0.1em" x="0" class="text-outer-tspan"><tspan font-weight="normal" class="text-inner-tspan" font-style="normal">has</tspan></tspan></text></g></g></g><g transform="translate(508.09375, 617.5)" class="edgeLabel"><g transform="translate(-40.9453125, -11.5)" class="label"><g><rect height="23" width="81.890625" y="-1" x="-2" style=";display: inline-block" class="background"></rect><text style=";display: inline-block" y="-10.1"><tspan dy="1.1em" y="-0.1em" x="0" class="text-outer-tspan"><tspan font-weight="normal" class="text-inner-tspan" font-style="normal">is</tspan><tspan font-weight="normal" class="text-inner-tspan" font-style="normal"> taken</tspan><tspan font-weight="normal" class="text-inner-tspan" font-style="normal"> by</tspan></tspan></text></g></g></g><g transform="translate(630.779296875, 450.5)" class="edgeLabel"><g transform="translate(-29.3984375, -11.5)" class="label"><g><rect height="23" width="58.796875" y="-1" x="-2" style=";display: inline-block" class="background"></rect><text style=";display: inline-block" y="-10.1"><tspan dy="1.1em" y="-0.1em" x="0" class="text-outer-tspan"><tspan font-weight="normal" class="text-inner-tspan" font-style="normal">submits</tspan></tspan></text></g></g></g><g transform="translate(392.0390625, 617.5)" class="edgeLabel"><g transform="translate(-37.203125, -11.5)" class="label"><g><rect height="23" width="74.40625" y="-1" x="-2" style=";display: inline-block" class="background"></rect><text style=";display: inline-block" y="-10.1"><tspan dy="1.1em" y="-0.1em" x="0" class="text-outer-tspan"><tspan font-weight="normal" class="text-inner-tspan" font-style="normal">generates</tspan></tspan></text></g></g></g><g transform="translate(76.70090107977862, 253.4789277249014)" class="edgeTerminals"><g transform="translate(-2.890625, -6)" class="inner"><text style=";display: inline-block"><tspan class="row" x="0" dy="1em" xml:space="preserve">1</tspan></text></g></g><g transform="translate(133.78079330367768, 261.11083266890597)" class="edgeTerminals"><g transform="translate(-2.0234375, -6)" class="inner"><text style=";display: inline-block"><tspan class="row" x="0" dy="1em" xml:space="preserve">*</tspan></text></g></g><g transform="translate(94.76562750000015, 598.5000021428572)" class="edgeTerminals"><g transform="translate(-2.890625, -6)" class="inner"><text style=";display: inline-block"><tspan class="row" x="0" dy="1em" xml:space="preserve">1</tspan></text></g></g><g transform="translate(221.87054406631032, 513.7652090558928)" class="edgeTerminals"><g transform="translate(-2.0234375, -6)" class="inner"><text style=";display: inline-block"><tspan class="row" x="0" dy="1em" xml:space="preserve">*</tspan></text></g></g><g transform="translate(288.2782045223059, 181.70839621898762)" class="edgeTerminals"><g transform="translate(-2.890625, -6)" class="inner"><text style=";display: inline-block"><tspan class="row" x="0" dy="1em" xml:space="preserve">1</tspan></text></g></g><g transform="translate(377.0390612500001, 565.4999989285715)" class="edgeTerminals"><g transform="translate(-2.890625, -6)" class="inner"><text style=";display: inline-block"><tspan class="row" x="0" dy="1em" xml:space="preserve">1</tspan></text></g></g><g transform="translate(88.76256770643698, 294.81343264013003)" class="edgeTerminals"><g transform="translate(-2.0234375, -6)" class="inner"></g><text style=";display: inline-block"><tspan class="row" x="0" dy="1em" xml:space="preserve">*</tspan></text></g><g transform="translate(150.14079042724535, 300.91910735986994)" class="edgeTerminals"><g transform="translate(-2.0234375, -6)" class="inner"></g><text style=";display: inline-block"><tspan class="row" x="0" dy="1em" xml:space="preserve">*</tspan></text></g><g transform="translate(127.81932428207685, 639.094791377178)" class="edgeTerminals"><g transform="translate(-2.0234375, -6)" class="inner"></g><text style=";display: inline-block"><tspan class="row" x="0" dy="1em" xml:space="preserve">*</tspan></text></g><g transform="translate(525.0468143265485, 627.2080642949496)" class="edgeTerminals"><g transform="translate(-2.0234375, -6)" class="inner"></g><text style=";display: inline-block"><tspan class="row" x="0" dy="1em" xml:space="preserve">*</tspan></text></g><g transform="translate(631.8593712983137, 638.1581400209313)" class="edgeTerminals"><g transform="translate(-2.0234375, -6)" class="inner"></g><text style=";display: inline-block"><tspan class="row" x="0" dy="1em" xml:space="preserve">*</tspan></text></g><g transform="translate(284.0889787359723, 697.7806658070213)" class="edgeTerminals"><g transform="translate(-2.0234375, -6)" class="inner"></g><text style=";display: inline-block"><tspan class="row" x="0" dy="1em" xml:space="preserve">*</tspan></text></g></g><g class="nodes"><g transform="translate(176.6416015625, 127.5)" id="classId-User-153" class="node default"><g class="basic label-container"><path style="" fill="#E0FBFB" stroke-width="0" stroke="none" d="M-99.958984375 -119.5 L99.958984375 -119.5 L99.958984375 119.5 L-99.958984375 119.5"></path><path style="" fill="none" stroke-width="1.3" stroke="#007070" d="M-99.958984375 -119.5 C-45.70389251799334 -119.5, 8.551199339013323 -119.5, 99.958984375 -119.5 M-99.958984375 -119.5 C-52.66021420047385 -119.5, -5.361444025947705 -119.5, 99.958984375 -119.5 M99.958984375 -119.5 C99.958984375 -29.470211759723682, 99.958984375 60.559576480552636, 99.958984375 119.5 M99.958984375 -119.5 C99.958984375 -35.06127061834444, 99.958984375 49.377458763311125, 99.958984375 119.5 M99.958984375 119.5 C59.85316056080392 119.5, 19.747336746607843 119.5, -99.958984375 119.5 M99.958984375 119.5 C25.308757497167292 119.5, -49.341469380665416 119.5, -99.958984375 119.5 M-99.958984375 119.5 C-99.958984375 41.245312808810226, -99.958984375 -37.00937438237955, -99.958984375 -119.5 M-99.958984375 119.5 C-99.958984375 68.45147862761794, -99.958984375 17.40295725523589, -99.958984375 -119.5"></path></g><g transform="translate(0, -99.5)" class="annotation-group text"></g><g transform="translate(-16.96484375, -99.5)" class="label-group text"><g transform="translate(0,-9.5)" style="font-weight: bolder" class="label"><g><rect style="stroke: none" class="background"></rect><text style="" y="-10.1"><tspan font-weight="" dy="1.1em" y="-0.1em" x="0" class="text-outer-tspan"><tspan font-weight="" class="text-inner-tspan" font-style="normal">User</tspan></tspan></text></g></g></g><g transform="translate(-87.958984375, -56.5)" class="members-group text"><g transform="translate(0,-9.5)" style="" class="label"><g><rect style="stroke: none" class="background"></rect><text style="" y="-10.1"><tspan dy="1.1em" y="-0.1em" x="0" class="text-outer-tspan"><tspan font-weight="normal" class="text-inner-tspan" font-style="normal">-UUID</tspan><tspan font-weight="normal" class="text-inner-tspan" font-style="normal"> id</tspan></tspan></text></g></g><g transform="translate(0,12.5)" style="" class="label"><g><rect style="stroke: none" class="background"></rect><text style="" y="-10.1"><tspan dy="1.1em" y="-0.1em" x="0" class="text-outer-tspan"><tspan font-weight="normal" class="text-inner-tspan" font-style="normal">-String</tspan><tspan font-weight="normal" class="text-inner-tspan" font-style="normal"> name</tspan></tspan></text></g></g><g transform="translate(0,34.5)" style="" class="label"><g><rect style="stroke: none" class="background"></rect><text style="" y="-10.1"><tspan dy="1.1em" y="-0.1em" x="0" class="text-outer-tspan"><tspan font-weight="normal" class="text-inner-tspan" font-style="normal">-String</tspan><tspan font-weight="normal" class="text-inner-tspan" font-style="normal"> email</tspan></tspan></text></g></g><g transform="translate(0,56.5)" style="" class="label"><g><rect style="stroke: none" class="background"></rect><text style="" y="-10.1"><tspan dy="1.1em" y="-0.1em" x="0" class="text-outer-tspan"><tspan font-weight="normal" class="text-inner-tspan" font-style="normal">-String</tspan><tspan font-weight="normal" class="text-inner-tspan" font-style="normal"> password_hash</tspan></tspan></text></g></g><g transform="translate(0,78.5)" style="" class="label"><g><rect style="stroke: none" class="background"></rect><text style="" y="-10.1"><tspan dy="1.1em" y="-0.1em" x="0" class="text-outer-tspan"><tspan font-weight="normal" class="text-inner-tspan" font-style="normal">-role</tspan><tspan font-weight="normal" class="text-inner-tspan" font-style="normal"> role</tspan></tspan></text></g></g></g><g transform="translate(-87.958984375, 74.5)" class="methods-group text"><g transform="translate(0,-9.5)" style="" class="label"><g><rect style="stroke: none" class="background"></rect><text style="" y="-10.1"><tspan dy="1.1em" y="-0.1em" x="0" class="text-outer-tspan"><tspan font-weight="normal" class="text-inner-tspan" font-style="normal">+createAssessment()</tspan></tspan></text></g></g><g transform="translate(0,12.5)" style="" class="label"><g><rect style="stroke: none" class="background"></rect><text style="" y="-10.1"><tspan dy="1.1em" y="-0.1em" x="0" class="text-outer-tspan"><tspan font-weight="normal" class="text-inner-tspan" font-style="normal">+takeAssessment()</tspan></tspan></text></g></g></g><g style="" class="divider"><path style="" fill="none" stroke-width="1.3" stroke="#007070" d="M-99.958984375 -76.5 C-50.14225361611425 -76.5, -0.32552285722850627 -76.5, 99.958984375 -76.5 M-99.958984375 -76.5 C-46.81545364552536 -76.5, 6.328077083949282 -76.5, 99.958984375 -76.5"></path></g><g style="" class="divider"><path style="" fill="none" stroke-width="1.3" stroke="#007070" d="M-99.958984375 54.5 C-45.498851875953214 54.5, 8.961280623093572 54.5, 99.958984375 54.5 M-99.958984375 54.5 C-46.43618678010085 54.5, 7.086610814798306 54.5, 99.958984375 54.5"></path></g></g><g transform="translate(109.765625, 450.5)" id="classId-Assessment-154" class="node default"><g class="basic label-container"><path style="" fill="#E0FBFB" stroke-width="0" stroke="none" d="M-101.765625 -130.5 L101.765625 -130.5 L101.765625 130.5 L-101.765625 130.5"></path><path style="" fill="none" stroke-width="1.3" stroke="#007070" d="M-101.765625 -130.5 C-35.64693044357003 -130.5, 30.471764112859944 -130.5, 101.765625 -130.5 M-101.765625 -130.5 C-36.24548680213039 -130.5, 29.274651395739227 -130.5, 101.765625 -130.5 M101.765625 -130.5 C101.765625 -75.1965902954384, 101.765625 -19.893180590876796, 101.765625 130.5 M101.765625 -130.5 C101.765625 -71.03911447825273, 101.765625 -11.578228956505455, 101.765625 130.5 M101.765625 130.5 C28.458648980587256 130.5, -44.84832703882549 130.5, -101.765625 130.5 M101.765625 130.5 C46.134234015693245 130.5, -9.49715696861351 130.5, -101.765625 130.5 M-101.765625 130.5 C-101.765625 42.64135116099851, -101.765625 -45.21729767800298, -101.765625 -130.5 M-101.765625 130.5 C-101.765625 56.58725061285098, -101.765625 -17.32549877429804, -101.765625 -130.5"></path></g><g transform="translate(0, -110.5)" class="annotation-group text"></g><g transform="translate(-42.8125, -110.5)" class="label-group text"><g transform="translate(0,-9.5)" style="font-weight: bolder" class="label"><g><rect style="stroke: none" class="background"></rect><text style="" y="-10.1"><tspan font-weight="" dy="1.1em" y="-0.1em" x="0" class="text-outer-tspan"><tspan font-weight="" class="text-inner-tspan" font-style="normal">Assessment</tspan></tspan></text></g></g></g><g transform="translate(-89.765625, -67.5)" class="members-group text"><g transform="translate(0,-9.5)" style="" class="label"><g><rect style="stroke: none" class="background"></rect><text style="" y="-10.1"><tspan dy="1.1em" y="-0.1em" x="0" class="text-outer-tspan"><tspan font-weight="normal" class="text-inner-tspan" font-style="normal">-UUID</tspan><tspan font-weight="normal" class="text-inner-tspan" font-style="normal"> id</tspan></tspan></text></g></g><g transform="translate(0,12.5)" style="" class="label"><g><rect style="stroke: none" class="background"></rect><text style="" y="-10.1"><tspan dy="1.1em" y="-0.1em" x="0" class="text-outer-tspan"><tspan font-weight="normal" class="text-inner-tspan" font-style="normal">-String</tspan><tspan font-weight="normal" class="text-inner-tspan" font-style="normal"> title</tspan></tspan></text></g></g><g transform="translate(0,34.5)" style="" class="label"><g><rect style="stroke: none" class="background"></rect><text style="" y="-10.1"><tspan dy="1.1em" y="-0.1em" x="0" class="text-outer-tspan"><tspan font-weight="normal" class="text-inner-tspan" font-style="normal">-String</tspan><tspan font-weight="normal" class="text-inner-tspan" font-style="normal"> description</tspan></tspan></text></g></g><g transform="translate(0,56.5)" style="" class="label"><g><rect style="stroke: none" class="background"></rect><text style="" y="-10.1"><tspan dy="1.1em" y="-0.1em" x="0" class="text-outer-tspan"><tspan font-weight="normal" class="text-inner-tspan" font-style="normal">-Integer</tspan><tspan font-weight="normal" class="text-inner-tspan" font-style="normal"> time_limit</tspan></tspan></text></g></g><g transform="translate(0,78.5)" style="" class="label"><g><rect style="stroke: none" class="background"></rect><text style="" y="-10.1"><tspan dy="1.1em" y="-0.1em" x="0" class="text-outer-tspan"><tspan font-weight="normal" class="text-inner-tspan" font-style="normal">-status</tspan><tspan font-weight="normal" class="text-inner-tspan" font-style="normal"> status</tspan></tspan></text></g></g><g transform="translate(0,100.5)" style="" class="label"><g><rect style="stroke: none" class="background"></rect><text style="" y="-10.1"><tspan dy="1.1em" y="-0.1em" x="0" class="text-outer-tspan"><tspan font-weight="normal" class="text-inner-tspan" font-style="normal">-UUID</tspan><tspan font-weight="normal" class="text-inner-tspan" font-style="normal"> creator_id</tspan></tspan></text></g></g></g><g transform="translate(-89.765625, 85.5)" class="methods-group text"><g transform="translate(0,-9.5)" style="" class="label"><g><rect style="stroke: none" class="background"></rect><text style="" y="-10.1"><tspan dy="1.1em" y="-0.1em" x="0" class="text-outer-tspan"><tspan font-weight="normal" class="text-inner-tspan" font-style="normal">+addQuestion()</tspan></tspan></text></g></g><g transform="translate(0,12.5)" style="" class="label"><g><rect style="stroke: none" class="background"></rect><text style="" y="-10.1"><tspan dy="1.1em" y="-0.1em" x="0" class="text-outer-tspan"><tspan font-weight="normal" class="text-inner-tspan" font-style="normal">+publish()</tspan></tspan></text></g></g></g><g style="" class="divider"><path style="" fill="none" stroke-width="1.3" stroke="#007070" d="M-101.765625 -87.5 C-33.77493462223241 -87.5, 34.215755755535184 -87.5, 101.765625 -87.5 M-101.765625 -87.5 C-39.53301358771138 -87.5, 22.69959782457724 -87.5, 101.765625 -87.5"></path></g><g style="" class="divider"><path style="" fill="none" stroke-width="1.3" stroke="#007070" d="M-101.765625 65.5 C-54.88808067118143 65.5, -8.010536342362855 65.5, 101.765625 65.5 M-101.765625 65.5 C-27.625982087067598 65.5, 46.513660825864804 65.5, 101.765625 65.5"></path></g></g><g transform="translate(153.599609375, 773.5)" id="classId-Question-155" class="node default"><g class="basic label-container"><path style="" fill="#E0FBFB" stroke-width="0" stroke="none" d="M-112.6328125 -108.5 L112.6328125 -108.5 L112.6328125 108.5 L-112.6328125 108.5"></path><path style="" fill="none" stroke-width="1.3" stroke="#007070" d="M-112.6328125 -108.5 C-34.93074638066088 -108.5, 42.771319738678244 -108.5, 112.6328125 -108.5 M-112.6328125 -108.5 C-34.31809702291875 -108.5, 43.9966184541625 -108.5, 112.6328125 -108.5 M112.6328125 -108.5 C112.6328125 -62.471044484779064, 112.6328125 -16.442088969558128, 112.6328125 108.5 M112.6328125 -108.5 C112.6328125 -48.99895762667521, 112.6328125 10.502084746649587, 112.6328125 108.5 M112.6328125 108.5 C43.4128095217616 108.5, -25.807193456476796 108.5, -112.6328125 108.5 M112.6328125 108.5 C43.8840468730163 108.5, -24.864718753967395 108.5, -112.6328125 108.5 M-112.6328125 108.5 C-112.6328125 63.053168596935045, -112.6328125 17.60633719387009, -112.6328125 -108.5 M-112.6328125 108.5 C-112.6328125 61.891480123269965, -112.6328125 15.282960246539929, -112.6328125 -108.5"></path></g><g transform="translate(0, -88.5)" class="annotation-group text"></g><g transform="translate(-33.25, -88.5)" class="label-group text"><g transform="translate(0,-9.5)" style="font-weight: bolder" class="label"><g><rect style="stroke: none" class="background"></rect><text style="" y="-10.1"><tspan font-weight="" dy="1.1em" y="-0.1em" x="0" class="text-outer-tspan"><tspan font-weight="" class="text-inner-tspan" font-style="normal">Question</tspan></tspan></text></g></g></g><g transform="translate(-100.6328125, -45.5)" class="members-group text"><g transform="translate(0,-9.5)" style="" class="label"><g><rect style="stroke: none" class="background"></rect><text style="" y="-10.1"><tspan dy="1.1em" y="-0.1em" x="0" class="text-outer-tspan"><tspan font-weight="normal" class="text-inner-tspan" font-style="normal">-UUID</tspan><tspan font-weight="normal" class="text-inner-tspan" font-style="normal"> id</tspan></tspan></text></g></g><g transform="translate(0,12.5)" style="" class="label"><g><rect style="stroke: none" class="background"></rect><text style="" y="-10.1"><tspan dy="1.1em" y="-0.1em" x="0" class="text-outer-tspan"><tspan font-weight="normal" class="text-inner-tspan" font-style="normal">-UUID</tspan><tspan font-weight="normal" class="text-inner-tspan" font-style="normal"> assessment_id</tspan></tspan></text></g></g><g transform="translate(0,34.5)" style="" class="label"><g><rect style="stroke: none" class="background"></rect><text style="" y="-10.1"><tspan dy="1.1em" y="-0.1em" x="0" class="text-outer-tspan"><tspan font-weight="normal" class="text-inner-tspan" font-style="normal">-String</tspan><tspan font-weight="normal" class="text-inner-tspan" font-style="normal"> text</tspan></tspan></text></g></g><g transform="translate(0,56.5)" style="" class="label"><g><rect style="stroke: none" class="background"></rect><text style="" y="-10.1"><tspan dy="1.1em" y="-0.1em" x="0" class="text-outer-tspan"><tspan font-weight="normal" class="text-inner-tspan" font-style="normal">-List</tspan><tspan font-weight="normal" class="text-inner-tspan" font-style="normal"> options</tspan></tspan></text></g></g><g transform="translate(0,78.5)" style="" class="label"><g><rect style="stroke: none" class="background"></rect><text style="" y="-10.1"><tspan dy="1.1em" y="-0.1em" x="0" class="text-outer-tspan"><tspan font-weight="normal" class="text-inner-tspan" font-style="normal">-Integer</tspan><tspan font-weight="normal" class="text-inner-tspan" font-style="normal"> correct_option</tspan></tspan></text></g></g></g><g transform="translate(-100.6328125, 85.5)" class="methods-group text"><g transform="translate(0,-9.5)" style="" class="label"><g><rect style="stroke: none" class="background"></rect><text style="" y="-10.1"><tspan dy="1.1em" y="-0.1em" x="0" class="text-outer-tspan"><tspan font-weight="normal" class="text-inner-tspan" font-style="normal">+validateAnswer()</tspan></tspan></text></g></g></g><g style="" class="divider"><path style="" fill="none" stroke-width="1.3" stroke="#007070" d="M-112.6328125 -65.5 C-56.20924193283137 -65.5, 0.21432863433726368 -65.5, 112.6328125 -65.5 M-112.6328125 -65.5 C-57.94293730167946 -65.5, -3.253062103358914 -65.5, 112.6328125 -65.5"></path></g><g style="" class="divider"><path style="" fill="none" stroke-width="1.3" stroke="#007070" d="M-112.6328125 65.5 C-47.288035652065346 65.5, 18.056741195869307 65.5, 112.6328125 65.5 M-112.6328125 65.5 C-34.14000364170002 65.5, 44.35280521659996 65.5, 112.6328125 65.5"></path></g></g><g transform="translate(569.833984375, 773.5)" id="classId-Submission-156" class="node default"><g class="basic label-container"><path style="" fill="#E0FBFB" stroke-width="0" stroke="none" d="M-119.94140625 -119.5 L119.94140625 -119.5 L119.94140625 119.5 L-119.94140625 119.5"></path><path style="" fill="none" stroke-width="1.3" stroke="#007070" d="M-119.94140625 -119.5 C-49.192954262896365 -119.5, 21.55549772420727 -119.5, 119.94140625 -119.5 M-119.94140625 -119.5 C-66.12816397057706 -119.5, -12.314921691154126 -119.5, 119.94140625 -119.5 M119.94140625 -119.5 C119.94140625 -26.79977578951994, 119.94140625 65.90044842096012, 119.94140625 119.5 M119.94140625 -119.5 C119.94140625 -27.53836196884582, 119.94140625 64.42327606230836, 119.94140625 119.5 M119.94140625 119.5 C71.43626358776177 119.5, 22.93112092552353 119.5, -119.94140625 119.5 M119.94140625 119.5 C24.236542562329873 119.5, -71.46832112534025 119.5, -119.94140625 119.5 M-119.94140625 119.5 C-119.94140625 49.761065023276075, -119.94140625 -19.97786995344785, -119.94140625 -119.5 M-119.94140625 119.5 C-119.94140625 66.59831312129113, -119.94140625 13.696626242582255, -119.94140625 -119.5"></path></g><g transform="translate(0, -99.5)" class="annotation-group text"></g><g transform="translate(-41.2578125, -99.5)" class="label-group text"><g transform="translate(0,-9.5)" style="font-weight: bolder" class="label"><g><rect style="stroke: none" class="background"></rect><text style="" y="-10.1"><tspan font-weight="" dy="1.1em" y="-0.1em" x="0" class="text-outer-tspan"><tspan font-weight="" class="text-inner-tspan" font-style="normal">Submission</tspan></tspan></text></g></g></g><g transform="translate(-107.94140625, -56.5)" class="members-group text"><g transform="translate(0,-9.5)" style="" class="label"><g><rect style="stroke: none" class="background"></rect><text style="" y="-10.1"><tspan dy="1.1em" y="-0.1em" x="0" class="text-outer-tspan"><tspan font-weight="normal" class="text-inner-tspan" font-style="normal">-UUID</tspan><tspan font-weight="normal" class="text-inner-tspan" font-style="normal"> id</tspan></tspan></text></g></g><g transform="translate(0,12.5)" style="" class="label"><g><rect style="stroke: none" class="background"></rect><text style="" y="-10.1"><tspan dy="1.1em" y="-0.1em" x="0" class="text-outer-tspan"><tspan font-weight="normal" class="text-inner-tspan" font-style="normal">-UUID</tspan><tspan font-weight="normal" class="text-inner-tspan" font-style="normal"> user_id</tspan></tspan></text></g></g><g transform="translate(0,34.5)" style="" class="label"><g><rect style="stroke: none" class="background"></rect><text style="" y="-10.1"><tspan dy="1.1em" y="-0.1em" x="0" class="text-outer-tspan"><tspan font-weight="normal" class="text-inner-tspan" font-style="normal">-UUID</tspan><tspan font-weight="normal" class="text-inner-tspan" font-style="normal"> assessment_id</tspan></tspan></text></g></g><g transform="translate(0,56.5)" style="" class="label"><g><rect style="stroke: none" class="background"></rect><text style="" y="-10.1"><tspan dy="1.1em" y="-0.1em" x="0" class="text-outer-tspan"><tspan font-weight="normal" class="text-inner-tspan" font-style="normal">-List</tspan><tspan font-weight="normal" class="text-inner-tspan" font-style="normal"> answers</tspan></tspan></text></g></g><g transform="translate(0,78.5)" style="" class="label"><g><rect style="stroke: none" class="background"></rect><text style="" y="-10.1"><tspan dy="1.1em" y="-0.1em" x="0" class="text-outer-tspan"><tspan font-weight="normal" class="text-inner-tspan" font-style="normal">-Float</tspan><tspan font-weight="normal" class="text-inner-tspan" font-style="normal"> score</tspan></tspan></text></g></g><g transform="translate(0,100.5)" style="" class="label"><g><rect style="stroke: none" class="background"></rect><text style="" y="-10.1"><tspan dy="1.1em" y="-0.1em" x="0" class="text-outer-tspan"><tspan font-weight="normal" class="text-inner-tspan" font-style="normal">-DateTime</tspan><tspan font-weight="normal" class="text-inner-tspan" font-style="normal"> submitted_at</tspan></tspan></text></g></g></g><g transform="translate(-107.94140625, 96.5)" class="methods-group text"><g transform="translate(0,-9.5)" style="" class="label"><g><rect style="stroke: none" class="background"></rect><text style="" y="-10.1"><tspan dy="1.1em" y="-0.1em" x="0" class="text-outer-tspan"><tspan font-weight="normal" class="text-inner-tspan" font-style="normal">+calculateScore()</tspan></tspan></text></g></g></g><g style="" class="divider"><path style="" fill="none" stroke-width="1.3" stroke="#007070" d="M-119.94140625 -76.5 C-48.25024271428504 -76.5, 23.440920821429927 -76.5, 119.94140625 -76.5 M-119.94140625 -76.5 C-55.87424936428471 -76.5, 8.192907521430584 -76.5, 119.94140625 -76.5"></path></g><g style="" class="divider"><path style="" fill="none" stroke-width="1.3" stroke="#007070" d="M-119.94140625 76.5 C-68.06435451358911 76.5, -16.187302777178218 76.5, 119.94140625 76.5 M-119.94140625 76.5 C-69.95338260147957 76.5, -19.965358952959136 76.5, 119.94140625 76.5"></path></g></g><g transform="translate(392.0390625, 450.5)" id="classId-DocumentUpload-157" class="node default"><g class="basic label-container"><path style="" fill="#E0FBFB" stroke-width="0" stroke="none" d="M-130.5078125 -97.5 L130.5078125 -97.5 L130.5078125 97.5 L-130.5078125 97.5"></path><path style="" fill="none" stroke-width="1.3" stroke="#007070" d="M-130.5078125 -97.5 C-52.70712707364851 -97.5, 25.093558352702985 -97.5, 130.5078125 -97.5 M-130.5078125 -97.5 C-27.140398528994226 -97.5, 76.22701544201155 -97.5, 130.5078125 -97.5 M130.5078125 -97.5 C130.5078125 -32.368999394884426, 130.5078125 32.76200121023115, 130.5078125 97.5 M130.5078125 -97.5 C130.5078125 -45.08044737941176, 130.5078125 7.339105241176483, 130.5078125 97.5 M130.5078125 97.5 C43.0340954412836 97.5, -44.439621617432806 97.5, -130.5078125 97.5 M130.5078125 97.5 C45.85870780998222 97.5, -38.79039688003556 97.5, -130.5078125 97.5 M-130.5078125 97.5 C-130.5078125 50.97967729523014, -130.5078125 4.459354590460279, -130.5078125 -97.5 M-130.5078125 97.5 C-130.5078125 25.853827554067777, -130.5078125 -45.792344891864445, -130.5078125 -97.5"></path></g><g transform="translate(0, -77.5)" class="annotation-group text"></g><g transform="translate(-63.734375, -77.5)" class="label-group text"><g transform="translate(0,-9.5)" style="font-weight: bolder" class="label"><g><rect style="stroke: none" class="background"></rect><text style="" y="-10.1"><tspan font-weight="" dy="1.1em" y="-0.1em" x="0" class="text-outer-tspan"><tspan font-weight="" class="text-inner-tspan" font-style="normal">DocumentUpload</tspan></tspan></text></g></g></g><g transform="translate(-118.5078125, -34.5)" class="members-group text"><g transform="translate(0,-9.5)" style="" class="label"><g><rect style="stroke: none" class="background"></rect><text style="" y="-10.1"><tspan dy="1.1em" y="-0.1em" x="0" class="text-outer-tspan"><tspan font-weight="normal" class="text-inner-tspan" font-style="normal">-UUID</tspan><tspan font-weight="normal" class="text-inner-tspan" font-style="normal"> id</tspan></tspan></text></g></g><g transform="translate(0,12.5)" style="" class="label"><g><rect style="stroke: none" class="background"></rect><text style="" y="-10.1"><tspan dy="1.1em" y="-0.1em" x="0" class="text-outer-tspan"><tspan font-weight="normal" class="text-inner-tspan" font-style="normal">-UUID</tspan><tspan font-weight="normal" class="text-inner-tspan" font-style="normal"> uploaded_by</tspan></tspan></text></g></g><g transform="translate(0,34.5)" style="" class="label"><g><rect style="stroke: none" class="background"></rect><text style="" y="-10.1"><tspan dy="1.1em" y="-0.1em" x="0" class="text-outer-tspan"><tspan font-weight="normal" class="text-inner-tspan" font-style="normal">-String</tspan><tspan font-weight="normal" class="text-inner-tspan" font-style="normal"> file_path</tspan></tspan></text></g></g><g transform="translate(0,56.5)" style="" class="label"><g><rect style="stroke: none" class="background"></rect><text style="" y="-10.1"><tspan dy="1.1em" y="-0.1em" x="0" class="text-outer-tspan"><tspan font-weight="normal" class="text-inner-tspan" font-style="normal">-DateTime</tspan><tspan font-weight="normal" class="text-inner-tspan" font-style="normal"> processed_at</tspan></tspan></text></g></g></g><g transform="translate(-118.5078125, 74.5)" class="methods-group text"><g transform="translate(0,-9.5)" style="" class="label"><g><rect style="stroke: none" class="background"></rect><text style="" y="-10.1"><tspan dy="1.1em" y="-0.1em" x="0" class="text-outer-tspan"><tspan font-weight="normal" class="text-inner-tspan" font-style="normal">+generateQuestions()</tspan></tspan></text></g></g></g><g style="" class="divider"><path style="" fill="none" stroke-width="1.3" stroke="#007070" d="M-130.5078125 -54.5 C-58.31271027189295 -54.5, 13.882391956214093 -54.5, 130.5078125 -54.5 M-130.5078125 -54.5 C-51.614852257852675 -54.5, 27.27810798429465 -54.5, 130.5078125 -54.5"></path></g><g style="" class="divider"><path style="" fill="none" stroke-width="1.3" stroke="#007070" d="M-130.5078125 54.5 C-47.10790784767033 54.5, 36.291996804659334 54.5, 130.5078125 54.5 M-130.5078125 54.5 C-55.278231776690546 54.5, 19.951348946618907 54.5, 130.5078125 54.5"></path></g></g><g transform="translate(403.2763671875, 127.5)" id="classId-role-158" class="node default"><g class="basic label-container"><path style="" fill="#E0FBFB" stroke-width="0" stroke="none" d="M-76.67578125 -97.5 L76.67578125 -97.5 L76.67578125 97.5 L-76.67578125 97.5"></path><path style="" fill="none" stroke-width="1.3" stroke="#007070" d="M-76.67578125 -97.5 C-29.013126835593013 -97.5, 18.649527578813974 -97.5, 76.67578125 -97.5 M-76.67578125 -97.5 C-37.54202843182138 -97.5, 1.5917243863572423 -97.5, 76.67578125 -97.5 M76.67578125 -97.5 C76.67578125 -41.112240671381564, 76.67578125 15.275518657236873, 76.67578125 97.5 M76.67578125 -97.5 C76.67578125 -45.53261636205123, 76.67578125 6.434767275897542, 76.67578125 97.5 M76.67578125 97.5 C45.45443141860259 97.5, 14.233081587205177 97.5, -76.67578125 97.5 M76.67578125 97.5 C34.16935704733641 97.5, -8.337067155327176 97.5, -76.67578125 97.5 M-76.67578125 97.5 C-76.67578125 21.24124299745654, -76.67578125 -55.01751400508692, -76.67578125 -97.5 M-76.67578125 97.5 C-76.67578125 21.278535970555254, -76.67578125 -54.94292805888949, -76.67578125 -97.5"></path></g><g transform="translate(-53.9296875, -77.5)" class="annotation-group text"><g transform="translate(0,-9.5)" style="" class="label"><g><rect style="stroke: none" class="background"></rect><text style="" y="-10.1"><tspan dy="1.1em" y="-0.1em" x="0" class="text-outer-tspan"><tspan font-weight="normal" class="text-inner-tspan" font-style="normal">«enumeration»</tspan></tspan></text></g></g></g><g transform="translate(-14.90625, -58.5)" class="label-group text"><g transform="translate(0,-9.5)" style="font-weight: bolder" class="label"><g><rect style="stroke: none" class="background"></rect><text style="" y="-10.1"><tspan font-weight="" dy="1.1em" y="-0.1em" x="0" class="text-outer-tspan"><tspan font-weight="" class="text-inner-tspan" font-style="normal">role</tspan></tspan></text></g></g></g><g transform="translate(-64.67578125, -15.5)" class="members-group text"><g transform="translate(0,-9.5)" style="" class="label"><g><rect style="stroke: none" class="background"></rect><text style="" y="-10.1"><tspan dy="1.1em" y="-0.1em" x="0" class="text-outer-tspan"><tspan font-weight="normal" class="text-inner-tspan" font-style="normal">STUDENT</tspan></tspan></text></g></g><g transform="translate(0,12.5)" style="" class="label"><g><rect style="stroke: none" class="background"></rect><text style="" y="-10.1"><tspan dy="1.1em" y="-0.1em" x="0" class="text-outer-tspan"><tspan font-weight="normal" class="text-inner-tspan" font-style="normal">TEACHER</tspan></tspan></text></g></g><g transform="translate(0,34.5)" style="" class="label"><g><rect style="stroke: none" class="background"></rect><text style="" y="-10.1"><tspan dy="1.1em" y="-0.1em" x="0" class="text-outer-tspan"><tspan font-weight="normal" class="text-inner-tspan" font-style="normal">HR</tspan></tspan></text></g></g><g transform="translate(0,56.5)" style="" class="label"><g><rect style="stroke: none" class="background"></rect><text style="" y="-10.1"><tspan dy="1.1em" y="-0.1em" x="0" class="text-outer-tspan"><tspan font-weight="normal" class="text-inner-tspan" font-style="normal">EMPLOYER</tspan></tspan></text></g></g></g><g transform="translate(-64.67578125, 93.5)" class="methods-group text"></g><g style="" class="divider"><path style="" fill="none" stroke-width="1.3" stroke="#007070" d="M-76.67578125 -35.5 C-35.214717926601814 -35.5, 6.246345396796372 -35.5, 76.67578125 -35.5 M-76.67578125 -35.5 C-27.013061411289634 -35.5, 22.649658427420732 -35.5, 76.67578125 -35.5"></path></g><g style="" class="divider"><path style="" fill="none" stroke-width="1.3" stroke="#007070" d="M-76.67578125 73.5 C-43.99887387675536 73.5, -11.321966503510723 73.5, 76.67578125 73.5 M-76.67578125 73.5 C-40.10386097395317 73.5, -3.531940697906336 73.5, 76.67578125 73.5"></path></g></g><g transform="translate(607.7373046875, 127.5)" id="classId-status-159" class="node default"><g class="basic label-container"><path style="" fill="#E0FBFB" stroke-width="0" stroke="none" d="M-77.78515625 -86.5 L77.78515625 -86.5 L77.78515625 86.5 L-77.78515625 86.5"></path><path style="" fill="none" stroke-width="1.3" stroke="#007070" d="M-77.78515625 -86.5 C-24.839741905014705 -86.5, 28.10567243997059 -86.5, 77.78515625 -86.5 M-77.78515625 -86.5 C-22.03884167960222 -86.5, 33.70747289079556 -86.5, 77.78515625 -86.5 M77.78515625 -86.5 C77.78515625 -41.486731912361556, 77.78515625 3.5265361752768882, 77.78515625 86.5 M77.78515625 -86.5 C77.78515625 -47.58782478951124, 77.78515625 -8.675649579022476, 77.78515625 86.5 M77.78515625 86.5 C19.431256400008444 86.5, -38.92264344998311 86.5, -77.78515625 86.5 M77.78515625 86.5 C35.44841983962679 86.5, -6.888316570746426 86.5, -77.78515625 86.5 M-77.78515625 86.5 C-77.78515625 37.17153369178897, -77.78515625 -12.156932616422054, -77.78515625 -86.5 M-77.78515625 86.5 C-77.78515625 23.732211274727916, -77.78515625 -39.03557745054417, -77.78515625 -86.5"></path></g><g transform="translate(-53.9296875, -66.5)" class="annotation-group text"><g transform="translate(0,-9.5)" style="" class="label"><g><rect style="stroke: none" class="background"></rect><text style="" y="-10.1"><tspan dy="1.1em" y="-0.1em" x="0" class="text-outer-tspan"><tspan font-weight="normal" class="text-inner-tspan" font-style="normal">«enumeration»</tspan></tspan></text></g></g></g><g transform="translate(-22.27734375, -47.5)" class="label-group text"><g transform="translate(0,-9.5)" style="font-weight: bolder" class="label"><g><rect style="stroke: none" class="background"></rect><text style="" y="-10.1"><tspan font-weight="" dy="1.1em" y="-0.1em" x="0" class="text-outer-tspan"><tspan font-weight="" class="text-inner-tspan" font-style="normal">status</tspan></tspan></text></g></g></g><g transform="translate(-65.78515625, -4.5)" class="members-group text"><g transform="translate(0,-9.5)" style="" class="label"><g><rect style="stroke: none" class="background"></rect><text style="" y="-10.1"><tspan dy="1.1em" y="-0.1em" x="0" class="text-outer-tspan"><tspan font-weight="normal" class="text-inner-tspan" font-style="normal">DRAFT</tspan></tspan></text></g></g><g transform="translate(0,12.5)" style="" class="label"><g><rect style="stroke: none" class="background"></rect><text style="" y="-10.1"><tspan dy="1.1em" y="-0.1em" x="0" class="text-outer-tspan"><tspan font-weight="normal" class="text-inner-tspan" font-style="normal">PUBLISHED</tspan></tspan></text></g></g><g transform="translate(0,34.5)" style="" class="label"><g><rect style="stroke: none" class="background"></rect><text style="" y="-10.1"><tspan dy="1.1em" y="-0.1em" x="0" class="text-outer-tspan"><tspan font-weight="normal" class="text-inner-tspan" font-style="normal">CLOSED</tspan></tspan></text></g></g></g><g transform="translate(-65.78515625, 82.5)" class="methods-group text"></g><g style="" class="divider"><path style="" fill="none" stroke-width="1.3" stroke="#007070" d="M-77.78515625 -24.5 C-37.37574431130546 -24.5, 3.033667627389079 -24.5, 77.78515625 -24.5 M-77.78515625 -24.5 C-45.357006537946106 -24.5, -12.928856825892211 -24.5, 77.78515625 -24.5"></path></g><g style="" class="divider"><path style="" fill="none" stroke-width="1.3" stroke="#007070" d="M-77.78515625 62.5 C-24.33095618626305 62.5, 29.123243877473897 62.5, 77.78515625 62.5 M-77.78515625 62.5 C-41.035124610775384 62.5, -4.2850929715507675 62.5, 77.78515625 62.5"></path></g></g></g></g></g></svg>